<svg width="22" height="17" viewBox="0 0 22 17" fill="none" xmlns="http://www.w3.org/2000/svg">
<path d="M21.54 2C20.7671 2.35 19.9339 2.58 19.0706 2.69C19.954 2.16 20.6366 1.32 20.9578 0.31C20.1247 0.81 19.2011 1.16 18.2274 1.36C17.4344 0.5 16.3202 0 15.0553 0C12.6964 0 10.769 1.92 10.769 4.29C10.769 4.63 10.8092 4.96 10.8794 5.27C7.30581 5.09 4.12369 3.38 2.00562 0.79C1.63421 1.42 1.4234 2.16 1.4234 2.94C1.4234 4.43 2.17627 5.75 3.34071 6.5C2.62799 6.5 1.96547 6.3 1.38325 6C1.38325 6 1.38325 6 1.38325 6.03C1.38325 8.11 2.86891 9.85 4.83641 10.24C4.47503 10.34 4.09358 10.39 3.70209 10.39C3.43105 10.39 3.16002 10.36 2.89903 10.31C3.44109 12 5.0171 13.26 6.91432 13.29C5.44874 14.45 3.59166 15.13 1.56394 15.13C1.22264 15.13 0.881339 15.11 0.540039 15.07C2.44731 16.29 4.71595 17 7.1452 17C15.0553 17 19.4019 10.46 19.4019 4.79C19.4019 4.6 19.4019 4.42 19.3919 4.23C20.2351 3.63 20.9578 2.87 21.54 2Z" fill="black"/>
</svg>
