<svg width="10" height="8" viewBox="0 0 10 8" fill="none" xmlns="http://www.w3.org/2000/svg">
<path d="M9.29836 1.46282C9.60964 1.18393 9.60938 0.696368 9.29779 0.417809C9.03165 0.179879 8.62924 0.179879 8.3631 0.417809L5.19008 3.25448C4.7454 3.65203 4.7454 4.34797 5.19008 4.74551L8.36309 7.58219C8.62924 7.82012 9.03165 7.82012 9.29779 7.58219C9.60938 7.30363 9.60964 6.81607 9.29836 6.53718L7.29782 4.74479C6.85422 4.34734 6.85422 3.65266 7.29782 3.25521L9.29836 1.46282ZM4.82408 1.46282C5.13537 1.18393 5.1351 0.696368 4.82352 0.417809C4.55738 0.179879 4.15496 0.179879 3.88882 0.417809L0.715806 3.25448C0.271126 3.65203 0.271125 4.34797 0.715805 4.74551L3.88882 7.58219C4.15496 7.82012 4.55738 7.82012 4.82352 7.58219C5.1351 7.30363 5.13537 6.81607 4.82408 6.53718L2.82355 4.74479C2.37994 4.34734 2.37994 3.65266 2.82355 3.25521L4.82408 1.46282Z" fill="black"/>
</svg>
