<svg width="10" height="8" viewBox="0 0 10 8" fill="none" xmlns="http://www.w3.org/2000/svg">
<path d="M1.00407 1.46282C0.692787 1.18393 0.693051 0.696368 1.00464 0.417809V0.417809C1.27078 0.179879 1.67319 0.179879 1.93933 0.417809L5.11235 3.25448C5.55703 3.65203 5.55703 4.34797 5.11235 4.74551L1.93933 7.58219C1.67319 7.82012 1.27078 7.82012 1.00464 7.58219V7.58219C0.693052 7.30363 0.692787 6.81607 1.00407 6.53718L3.00461 4.74479C3.44821 4.34734 3.44821 3.65266 3.00461 3.25521L1.00407 1.46282ZM5.47834 1.46282C5.16706 1.18393 5.16732 0.696368 5.47891 0.417809V0.417809C5.74505 0.179879 6.14747 0.179879 6.41361 0.417809L9.58662 3.25448C10.0313 3.65203 10.0313 4.34797 9.58662 4.74551L6.41361 7.58219C6.14747 7.82012 5.74505 7.82012 5.47891 7.58219V7.58219C5.16732 7.30363 5.16706 6.81607 5.47834 6.53718L7.47888 4.74479C7.92249 4.34734 7.92249 3.65266 7.47888 3.25521L5.47834 1.46282Z" fill="black"/>
</svg>
